<svg xmlns="http://www.w3.org/2000/svg" viewBox="0 0 64 64" fill="none">
  <rect width="64" height="64" rx="12" fill="#6C5CE7"/>
  <path d="M20 22C20 20.8954 20.8954 20 22 20H30C31.1046 20 32 20.8954 32 22V30C32 31.1046 31.1046 32 30 32H22C20.8954 32 20 31.1046 20 30V22Z" fill="white"/>
  <path d="M34 22C34 20.8954 34.8954 20 36 20H42C43.1046 20 44 20.8954 44 22V30C44 31.1046 43.1046 32 42 32H36C34.8954 32 34 31.1046 34 30V22Z" fill="white" opacity="0.7"/>
  <path d="M20 34C20 32.8954 20.8954 32 22 32H30C31.1046 32 32 32.8954 32 34V42C32 43.1046 31.1046 44 30 44H22C20.8954 44 20 43.1046 20 42V34Z" fill="white" opacity="0.5"/>
  <path d="M34 34C34 32.8954 34.8954 32 36 32H42C43.1046 32 44 32.8954 44 34V42C44 43.1046 43.1046 44 42 44H36C34.8954 44 34 43.1046 34 42V34Z" fill="white" opacity="0.3"/>
</svg>
